PathFileType	4	(X/Y/Z)	..\data\2015035\dynamic\2015035_C4_03.trc
DataRate	CameraRate	NumFrames	NumMarkers	Units	OrigDataRate	OrigDataStartFrame	OrigNumFrames
100.000000	100.000000	4	52	mm	100.000000	156	179
Frame#	Time	L_IAS			L_IPS			R_IPS			R_IAS			L_FTC			L_FLE			L_FME			L_FAX			L_TTC			L_FAL			L_TAM			L_FCC			L_FM1			L_FM2			L_FM5			R_FTC			R_FLE			R_FME			R_FAX			R_TTC			R_FAL			R_TAM			R_FCC			R_FM1			R_FM2			R_FM5			CV7			TV10			SXS			SJN			L_SIA			L_SRS			L_SAA			L_SAE			L_HLE			L_HME			L_UOA			L_RSP			L_UHE			L_HM2			L_HM5			R_SIA			R_SRS			R_SAA			R_SAE			R_HLE			R_HME			R_UOA			R_RSP			R_UHE			R_HM2			R_HM5			
		X1	Y1	Z1	X2	Y2	Z2	X3	Y3	Z3	X4	Y4	Z4	X5	Y5	Z5	X6	Y6	Z6	X7	Y7	Z7	X8	Y8	Z8	X9	Y9	Z9	X10	Y10	Z10	X11	Y11	Z11	X12	Y12	Z12	X13	Y13	Z13	X14	Y14	Z14	X15	Y15	Z15	X16	Y16	Z16	X17	Y17	Z17	X18	Y18	Z18	X19	Y19	Z19	X20	Y20	Z20	X21	Y21	Z21	X22	Y22	Z22	X23	Y23	Z23	X24	Y24	Z24	X25	Y25	Z25	X26	Y26	Z26	X27	Y27	Z27	X28	Y28	Z28	X29	Y29	Z29	X30	Y30	Z30	X31	Y31	Z31	X32	Y32	Z32	X33	Y33	Z33	X34	Y34	Z34	X35	Y35	Z35	X36	Y36	Z36	X37	Y37	Z37	X38	Y38	Z38	X39	Y39	Z39	X40	Y40	Z40	X41	Y41	Z41	X42	Y42	Z42	X43	Y43	Z43	X44	Y44	Z44	X45	Y45	Z45	X46	Y46	Z46	X47	Y47	Z47	X48	Y48	Z48	X49	Y49	Z49	X50	Y50	Z50	X51	Y51	Z51	X52	Y52	Z52	

157	1.56	1546.120849609375	971.5842895507815	-371.2544555664063	1349.120849609375	990.8768310546877	-275.1098937988282	1352.490478515625	978.143493652344	-191.3663330078125	1536.357543945313	972.3773193359377	-104.460205078125	1449.943725585938	902.0091552734377	-419.5708923339845	1411.6796875	467.7046508789064	-379.2787780761719	1390.442016601563	485.2654724121095	-239.9949798583985	1393.01611328125	418.9469604492189	-378.3589782714844	1450.747192382813	391.1436157226564	-318.1759338378907	1332.252197265625	59.36144638061525	-324.3527832031251	1355.027954101563	80.43543243408205	-230.1449737548829	1285.472534179688	23.67961692810059	-273.5299072265626	1480.519409179688	21.39877319335938	-236.6542968750001	1486.821044921875	32.75285339355469	-297.4110412597657	1442.08984375	14.62363433837891	-349.4381408691407	1473.05126953125	877.2513427734377	-47.36834335327149	1646.567626953125	494.2010192871095	-67.32759857177736	1664.796875	495.0235900878907	-190.8206787109375	1621.280395507813	452.2363891601564	-70.01919555664064	1690.2236328125	424.3738098144532	-108.1859817504883	1526.9365234375	101.4168167114258	-101.1515197753907	1586.029663085938	113.8831329345703	-177.8737487792969	1498.338623046875	64.26273345947267	-155.1425170898438	1683.359985351563	31.50670433044434	-152.6493072509766	1683.5263671875	48.15995025634767	-102.4739151000977	1624.984985351563	33.14448165893555	-59.8461265563965	1371.152954101563	1495.022583007813	-259.8171386718751	1313.165405273438	1204.300537109375	-246.197982788086	1560.153076171875	1237.249755859375	-249.0741424560547	1508.15234375	1406.403930664063	-253.5341491699219	1311.407958984375	1279.181030273438	-374.9663696289063	1335.590942382813	1424.229858398438	-354.2034606933594	1414.922485351563	1415.73291015625	-446.9293823242189	1463.269653320313	1419.764892578125	-448.2608947753907	1535.902465820313	1123.739135742188	-531.7670288085939	1491.420532226563	1091.466918945313	-455.1901245117189	1500.110717773438	1077.212646484375	-510.0991210937501	1731.832275390625	945.6445922851565	-456.2186889648439	1701.607177734375	919.4409179687502	-522.7348022460939	1802.61865234375	890.8355102539065	-450.937469482422	1735.721435546875	847.2299804687502	-521.1420288085939	1302.40771484375	1283.47509765625	-128.1041259765625	1334.907836914063	1428.779418945313	-157.7872619628907	1405.190307617188	1421.132202148438	-55.89092254638673	1456.522338867188	1417.989379882813	-45.80411529541016	1408.0439453125	1119.401611328125	39.69369125366212	1356.957885742188	1115.709838867188	-38.41685867309571	1359.020874023438	1096.115966796875	24.18135261535645	1518.298950195313	872.0488891601565	-1.466208577156067	1463.165405273438	864.3696289062502	55.55270385742189	1546.311767578125	783.7642822265627	1.771079659461976	1460.662719726563	796.6716918945315	63.51267242431642	
158	1.57	1556.347045898438	969.6451416015627	-370.8805847167969	1359.389404296875	989.5573730468752	-274.6075134277344	1362.629272460938	976.5027465820315	-190.9814453125	1546.427978515625	970.4895019531252	-103.9081420898438	1459.367431640625	900.8664550781252	-419.3242187500001	1414.672485351563	467.4713134765626	-379.8024291992188	1393.839111328125	485.2832336425782	-240.4447937011719	1395.44287109375	418.8991088867189	-378.7777404785157	1453.109008789063	390.353485107422	-318.8498840332032	1332.284301757813	59.57640457153322	-324.4163208007813	1355.26416015625	80.6858367919922	-230.2365722656251	1285.491943359375	24.03977203369141	-273.4625854492188	1480.499755859375	21.3449821472168	-236.7062683105469	1486.824829101563	32.6274528503418	-297.5073852539063	1442.07568359375	14.47421264648438	-349.5492248535157	1483.014282226563	875.2601318359377	-47.26951599121094	1659.082397460938	492.7754821777345	-68.83756256103517	1676.691040039063	494.2861938476564	-192.4614868164063	1635.336547851563	449.8020324707032	-71.50920867919923	1705.487548828125	424.8394775390626	-109.9761047363282	1559.890747070313	94.33751678466798	-101.771354675293	1618.229370117188	110.0048522949219	-178.7315368652344	1533.391723632813	55.67809295654298	-155.8740844726563	1720.002807617188	32.63966369628907	-153.3375549316407	1719.186767578125	49.05812835693361	-103.2482376098633	1661.475463867188	31.14129257202149	-60.47053527832033	1381.568359375	1493.40771484375	-260.0003356933594	1323.293823242188	1202.738403320313	-246.2455139160157	1569.967651367188	1235.33935546875	-248.6583557128907	1518.494995117188	1404.652099609375	-253.1895446777344	1322.277221679688	1277.481323242188	-375.3775939941407	1346.438354492188	1422.62548828125	-354.6007385253907	1426.071166992188	1414.124267578125	-447.0274963378907	1474.5068359375	1418.245361328125	-448.0865173339845	1549.462280273438	1123.295043945313	-532.5927734375001	1505.373779296875	1090.154052734375	-456.2065429687501	1514.466186523438	1075.91455078125	-511.0342712402345	1749.134765625	950.3569335937502	-454.9995727539064	1719.72119140625	922.7148437500002	-521.2785034179689	1821.503051757813	897.7994384765627	-449.2398071289064	1755.858642578125	851.4583129882815	-518.8847656250001	1312.097290039063	1281.707153320313	-128.6623229980469	1344.796264648438	1427.156860351563	-158.1970977783203	1414.559814453125	1419.304321289063	-55.98309326171876	1465.932495117188	1416.0400390625	-45.64863204956055	1416.859008789063	1117.401611328125	39.20280075073243	1366.328491210938	1113.645874023438	-39.32159042358399	1367.967407226563	1094.009155273438	23.27581405639649	1527.442626953125	870.0605468750002	-1.486298680305481	1471.929565429688	862.3245239257815	55.13863754272462	1555.519165039063	781.815124511719	1.917351126670838	1469.415161132813	794.6602172851565	63.00989913940431	
159	1.58	1566.551391601563	967.659851074219	-370.4899597167969	1369.673706054688	988.1378173828127	-274.0772094726563	1372.822265625	974.741149902344	-190.5706787109375	1556.550415039063	968.4410400390627	-103.3016891479492	1468.851318359375	899.6697387695315	-419.0697631835939	1417.962890625	467.2013549804689	-380.2732543945313	1397.582641601563	485.2233276367189	-240.8396606445313	1398.1611328125	418.8267822265626	-379.1503295898438	1455.739013671875	389.5108032226564	-319.5003662109376	1332.339965820313	59.8219337463379	-324.4765930175782	1355.57275390625	80.96897888183595	-230.3236389160157	1285.544555664063	24.48140716552735	-273.3833618164063	1480.458251953125	21.28449630737305	-236.7558593750001	1486.817626953125	32.49323654174805	-297.6056518554688	1442.0478515625	14.32009506225586	-349.6543273925782	1492.888305664063	872.9978027343752	-47.15545272827149	1671.066772460938	490.9674682617189	-70.41468811035158	1688.132202148438	493.2075805664064	-194.1499633789063	1648.8544921875	447.1165161132814	-73.08847045898439	1720.14404296875	425.075164794922	-111.7467956542969	1592.591552734375	88.09861755371095	-102.4413986206055	1650.101196289063	106.8338317871094	-179.5433044433594	1568.365112304688	48.0232620239258	-156.6761474609375	1755.964965820313	34.5904769897461	-153.8359985351563	1754.142822265625	50.75088500976564	-103.8244247436524	1697.352661132813	30.0378704071045	-60.97959136962892	1392.033325195313	1491.682739257813	-260.0940551757813	1333.507080078125	1201.0576171875	-246.1336517333985	1579.926147460938	1233.343872070313	-248.1709442138672	1528.909301757813	1402.76513671875	-252.7671813964844	1333.153076171875	1275.662963867188	-375.6240234375001	1357.328002929688	1420.916381835938	-354.8853759765626	1437.23388671875	1412.37939453125	-447.0327453613282	1485.783935546875	1416.57373046875	-447.8195800781251	1562.837768554688	1122.661865234375	-533.2922363281251	1519.048583984375	1088.723022460938	-457.1341552734376	1528.600830078125	1074.47509765625	-511.8398742675782	1765.986694335938	954.8269042968752	-453.7189331054689	1737.3974609375	925.7965087890627	-519.7506713867189	1839.799560546875	904.478698730469	-447.4680480957032	1775.44970703125	855.5119628906252	-516.5418701171876	1321.890869140625	1279.841186523438	-129.07177734375	1354.7734375	1425.438354492188	-158.4917755126953	1424.07080078125	1417.36328125	-55.96687698364259	1475.473876953125	1413.96337890625	-45.42375183105469	1425.829223632813	1115.3935546875	38.86156082153321	1375.8818359375	1111.45556640625	-40.19432449340821	1377.096069335938	1091.765258789063	22.39631080627442	1536.805541992188	867.9650878906252	-1.494318127632141	1480.938354492188	860.164733886719	54.74709701538087	1564.943359375	779.7565917968752	2.068997383117676	1478.380615234375	792.528991699219	62.49747848510744	
160	1.59	1576.715209960938	965.6560058593752	-370.1078491210938	1379.980102539063	986.6384277343752	-273.5079345703126	1383.084106445313	972.8899536132815	-190.1219177246094	1566.7529296875	966.2717285156252	-102.6773910522461	1478.370849609375	898.4332275390627	-418.8064575195314	1421.581665039063	466.8917846679689	-380.6729736328126	1401.74609375	485.0756835937501	-241.1550903320313	1401.202270507813	418.7305297851564	-379.4561157226563	1458.669189453125	388.6181030273439	-320.1160278320313	1332.424926757813	60.10703277587892	-324.5228271484376	1355.966186523438	81.28710937500001	-230.3987579345704	1285.634033203125	25.02082824707032	-273.2796936035157	1480.401245117188	21.22851943969727	-236.8076629638672	1486.7978515625	32.3537940979004	-297.7052001953126	1442.001342773438	14.16846942901612	-349.7487182617188	1502.723510742188	870.521179199219	-47.01914215087891	1682.566040039063	488.822723388672	-72.04977416992189	1699.125	491.8210754394532	-195.8823242187501	1661.88232421875	444.2167358398439	-74.74192810058595	1734.208984375	425.108856201172	-113.499740600586	1624.840454101563	82.73826599121095	-103.1827545166016	1681.467041015625	104.3840408325196	-180.3211517333985	1603.038208007813	41.34276199340821	-157.5476379394532	1791.05615234375	37.35491561889649	-154.1784973144532	1788.225830078125	53.25818252563478	-104.2346420288086	1732.429321289063	29.85104370117188	-61.40699005126955	1402.550415039063	1489.874267578125	-260.0881042480469	1343.798217773438	1199.288330078125	-245.8737945556641	1590.043212890625	1231.294677734375	-247.6267852783204	1539.400512695313	1400.768432617188	-252.2690887451172	1344.034790039063	1273.763793945313	-375.7108154296876	1368.25732421875	1419.13330078125	-355.0495910644532	1448.407958984375	1410.533447265625	-446.9404907226564	1497.093017578125	1414.787231445313	-447.4578857421876	1576.032470703125	1121.868408203125	-533.8513793945314	1532.461547851563	1087.199829101563	-457.9494934082032	1542.517333984375	1072.92578125	-512.4993896484376	1782.377319335938	959.0242309570315	-452.3828735351564	1754.619995117188	928.6752929687502	-518.1661987304689	1857.48583984375	910.8078613281252	-445.625946044922	1794.46484375	859.3653564453127	-514.1427612304689	1331.79345703125	1277.8984375	-129.33935546875	1364.846923828125	1423.640869140625	-158.6635284423828	1433.732788085938	1415.321899414063	-55.84360122680665	1485.155883789063	1411.778198242188	-45.12746047973634	1434.948852539063	1113.412963867188	38.6880111694336	1385.606811523438	1109.171875	-41.01264190673829	1386.400268554688	1089.41650390625	21.56429481506348	1546.3828125	865.7942504882815	-1.488816738128662	1490.177001953125	857.9158325195315	54.37707901000978	1574.580322265625	777.6201782226565	2.221998929977417	1487.557250976563	790.3025512695315	61.97962188720705	
